<svg width="24" height="24" viewBox="0 0 24 24" fill="none" xmlns="http://www.w3.org/2000/svg">
  <path fill-rule="evenodd" clip-rule="evenodd"
    d="M6.5 18C6.10221 18 5.72069 18.158 5.43938 18.4393C5.43936 18.4393 5.43941 18.4392 5.43938 18.4393M5.43938 18.4393C5.15807 18.7206 5 19.1023 5 19.5C5 20.0523 4.55228 20.5 4 20.5C3.44772 20.5 3 20.0523 3 19.5C3 18.5718 3.36875 17.6815 4.02508 17.0251C4.68144 16.3688 5.57174 16 6.5 16H20C20.5523 16 21 16.4477 21 17C21 17.5523 20.5523 18 20 18H6.5"
    fill="black" />
  <path fill-rule="evenodd" clip-rule="evenodd"
    d="M6.5 3C6.10217 3 5.72064 3.15804 5.43934 3.43934C5.15804 3.72064 5 4.10217 5 4.5V19.5C5 19.8978 5.15803 20.2793 5.43938 20.5607C5.72069 20.842 6.10221 21 6.5 21H19V3H6.5ZM4.02512 2.02512C4.6815 1.36874 5.57175 1 6.5 1H20C20.5523 1 21 1.44772 21 2V22C21 22.5523 20.5523 23 20 23H6.5C5.57174 23 4.68152 22.6312 4.02515 21.9749C3.36883 21.3185 3 20.4282 3 19.5V4.5C3 3.57175 3.36874 2.6815 4.02512 2.02512Z"
    fill="black" />
</svg>