<svg width="24" height="24" viewBox="0 0 24 24" fill="none" xmlns="http://www.w3.org/2000/svg">
  <path fill-rule="evenodd" clip-rule="evenodd"
    d="M4.04762 10.6445V22H21V10.6445L4.04762 10.6445ZM2.04762 10.6445C2.04762 9.53994 2.94303 8.64447 4.04762 8.64447H23V22C23 23.1046 22.1046 24 21 24H4.04762C2.94307 24 2.04762 23.1046 2.04762 22V10.6445Z"
    fill="black" />
  <path fill-rule="evenodd" clip-rule="evenodd"
    d="M9.9048 12.4014L17.762 16.8341L9.9048 21.2668V12.4014ZM11.9048 15.826V17.8422L13.6916 16.8341L11.9048 15.826Z"
    fill="black" />
  <path fill-rule="evenodd" clip-rule="evenodd"
    d="M20.1146 2.309C20.1143 2.30901 20.1139 2.30905 20.1131 2.30918L16.8002 2.88L16.3275 4.61979L20.4111 3.91619L20.1223 2.31563C20.1223 2.31562 20.1223 2.31565 20.1223 2.31563C20.1222 2.31488 20.122 2.3144 20.122 2.31421M20.1146 2.309C20.1146 2.309 20.1147 2.30899 20.1146 2.309ZM19.7735 0.338222C20.859 0.15119 21.8949 0.876457 22.0905 1.96039L22.7373 5.54486L13.5747 7.12357L15.2044 1.12549L19.7735 0.338222ZM15.1978 1.12663L13.5681 7.12471L6.94513 8.26586L8.66889 2.25157L15.1978 1.12663ZM10.2456 4.00937L9.74562 5.75386L11.9723 5.3702L12.445 3.63041L10.2456 4.00937ZM8.66209 2.25274L6.93834 8.26703L2.10315 9.10014L1.45916 5.53128C1.45916 5.53128 1.45916 5.53129 1.45916 5.53128C1.26246 4.44123 1.9898 3.40239 3.08136 3.2143L8.66209 2.25274ZM3.42878 5.18391L3.719 6.79226L5.36162 6.50923L5.8616 4.76474L3.42878 5.18391Z"
    fill="black" />
  <path
    d="M3 10.4443C4.10457 10.4443 5 9.54884 5 8.44427C5 7.33971 4.10457 6.44427 3 6.44427C1.89543 6.44427 1 7.33971 1 8.44427C1 9.54884 1.89543 10.4443 3 10.4443Z"
    fill="white" />
  <path fill-rule="evenodd" clip-rule="evenodd"
    d="M3 7.44427C2.44772 7.44427 2 7.89199 2 8.44427C2 8.99656 2.44772 9.44427 3 9.44427C3.55228 9.44427 4 8.99656 4 8.44427C4 7.89199 3.55228 7.44427 3 7.44427ZM0 8.44427C0 6.78742 1.34315 5.44427 3 5.44427C4.65685 5.44427 6 6.78742 6 8.44427C6 10.1011 4.65685 11.4443 3 11.4443C1.34315 11.4443 0 10.1011 0 8.44427Z"
    fill="black" />
</svg>