<svg width="24" height="24" viewBox="0 0 24 24" fill="none" xmlns="http://www.w3.org/2000/svg">
  <path fill-rule="evenodd" clip-rule="evenodd"
    d="M7.59887 3.69947C8.4496 2.07335 10.1214 1 12 1C13.8786 1 15.5504 2.07336 16.4011 3.69948C16.7576 3.61564 17.1248 3.57143 17.5 3.57143C18.8353 3.57143 20.11 4.11728 21.0454 5.07937M16.6101 5.71648C16.4905 5.75576 16.3712 5.80309 16.2523 5.85846L15.1908 6.35299L14.8686 5.2271C14.8321 5.09957 14.7884 4.97625 14.7381 4.85751C14.2595 3.7282 13.1821 3 12 3C10.8179 3 9.74045 3.72821 9.26191 4.8575C9.21159 4.97625 9.1679 5.09952 9.13146 5.22694L8.80946 6.35296L7.7478 5.8585C7.62878 5.80307 7.50943 5.75575 7.38993 5.71649C7.09797 5.62055 6.8013 5.57143 6.5 5.57143C5.71358 5.57143 4.95349 5.8925 4.38856 6.47355C3.82301 7.05527 3.50033 7.84999 3.5 8.68441C3.50209 9.38128 3.72848 10.0547 4.1393 10.5998C4.55003 11.1448 5.12062 11.5295 5.7586 11.7003L6.5 11.8988V17.1139C6.5 17.3791 6.60534 17.6334 6.79292 17.821C6.98043 18.0085 7.23477 18.1139 7.5 18.1139H16.5C16.7652 18.1139 17.0195 18.0086 17.2071 17.821C17.3947 17.6334 17.5 17.3791 17.5 17.1139V11.8997L18.2404 11.7006C19.5517 11.348 20.5 10.1179 20.5 8.68571C20.5 7.8508 20.1773 7.05557 19.6114 6.47357C19.0466 5.89254 18.2865 5.57143 17.5 5.57143C17.1987 5.57143 16.902 5.62055 16.6101 5.71648ZM7.59887 3.69947C7.24235 3.61564 6.87518 3.57143 6.5 3.57143C5.16468 3.57143 3.88995 4.11731 2.95458 5.07939C2.02015 6.04052 1.5 7.33827 1.5 8.68571L1.5 8.68831C1.50293 9.81328 1.86775 10.9088 2.54214 11.8036C3.05704 12.4868 3.73109 13.0244 4.5 13.3688V17.1139C4.5 17.9095 4.81608 18.6726 5.37866 19.2352C5.94128 19.7979 6.70437 20.1139 7.5 20.1139H16.5C17.2956 20.1139 18.0587 19.7978 18.6213 19.2352C19.1839 18.6726 19.5 17.9095 19.5 17.1139V13.3686C21.3033 12.5608 22.5 10.7292 22.5 8.68571C22.5 7.3383 21.9799 6.04052 21.0454 5.07937"
    fill="black" />
  <path fill-rule="evenodd" clip-rule="evenodd"
    d="M4.5 22C4.5 21.4477 4.94772 21 5.5 21H18.5C19.0523 21 19.5 21.4477 19.5 22C19.5 22.5523 19.0523 23 18.5 23H5.5C4.94772 23 4.5 22.5523 4.5 22Z"
    fill="black" />
  <path fill-rule="evenodd" clip-rule="evenodd"
    d="M12 11C12.5523 11 13 11.4477 13 12V18C13 18.5523 12.5523 19 12 19C11.4477 19 11 18.5523 11 18V12C11 11.4477 11.4477 11 12 11ZM9 13C9.55228 13 10 13.4477 10 14V18C10 18.5523 9.55228 19 9 19C8.44772 19 8 18.5523 8 18V14C8 13.4477 8.44772 13 9 13ZM15 13C15.5523 13 16 13.4477 16 14V18C16 18.5523 15.5523 19 15 19C14.4477 19 14 18.5523 14 18V14C14 13.4477 14.4477 13 15 13Z"
    fill="black" />
</svg>