<svg width="22" height="22" viewBox="0 0 22 22" fill="none" xmlns="http://www.w3.org/2000/svg">
  <g clip-path="url(#clip0_86_2104)">
    <path fill-rule="evenodd" clip-rule="evenodd"
      d="M5 2C3.34315 2 2 3.34315 2 5V17C2 18.6569 3.34315 20 5 20H17C18.6569 20 20 18.6569 20 17V5C20 3.34315 18.6569 2 17 2H5ZM0 5C0 2.23858 2.23858 0 5 0H17C19.7614 0 22 2.23858 22 5V17C22 19.7614 19.7614 22 17 22H5C2.23858 22 0 19.7614 0 17V5Z"
      fill="black" />
    <path
      d="M6 8C7.10457 8 8 7.10457 8 6C8 4.89543 7.10457 4 6 4C4.89543 4 4 4.89543 4 6C4 7.10457 4.89543 8 6 8Z"
      fill="black" />
    <path
      d="M11 13C12.1046 13 13 12.1046 13 11C13 9.89543 12.1046 9 11 9C9.89543 9 9 9.89543 9 11C9 12.1046 9.89543 13 11 13Z"
      fill="black" />
    <path
      d="M16 18C17.1046 18 18 17.1046 18 16C18 14.8954 17.1046 14 16 14C14.8954 14 14 14.8954 14 16C14 17.1046 14.8954 18 16 18Z"
      fill="black" />
    <path
      d="M16 8C17.1046 8 18 7.10457 18 6C18 4.89543 17.1046 4 16 4C14.8954 4 14 4.89543 14 6C14 7.10457 14.8954 8 16 8Z"
      fill="black" />
    <path
      d="M6 18C7.10457 18 8 17.1046 8 16C8 14.8954 7.10457 14 6 14C4.89543 14 4 14.8954 4 16C4 17.1046 4.89543 18 6 18Z"
      fill="black" />
  </g>
  <defs>
    <clipPath id="clip0_86_2104">
      <rect width="22" height="22" fill="white" />
    </clipPath>
  </defs>
</svg>