<svg width="24" height="24" viewBox="0 0 24 24" fill="none" xmlns="http://www.w3.org/2000/svg">
  <path
    d="M8.50006 9.3528C8.50006 8.76804 8.05234 8.294 7.50006 8.294C6.94777 8.294 6.50006 8.76804 6.50006 9.3528V9.8822H6.00006C5.44777 9.8822 5.00006 10.3562 5.00006 10.941C5.00006 11.5258 5.44777 11.9998 6.00006 11.9998H6.50006V12.5292C6.50006 13.114 6.94777 13.588 7.50006 13.588C8.05234 13.588 8.50006 13.114 8.50006 12.5292V11.9998H9.00006C9.1279 11.9998 9.25013 11.9744 9.36251 11.9281C9.73562 11.7744 10.0001 11.3904 10.0001 10.941C10.0001 10.3562 9.55234 9.8822 9.00006 9.8822H8.50006V9.3528Z"
    fill="black" />
  <path fill-rule="evenodd" clip-rule="evenodd"
    d="M16.2851 3C15.2006 2.99985 14.1429 3.35594 13.2577 4.01913L12.7557 4.395C12.5348 4.56049 12.2707 4.64946 12.0001 4.64946C11.7295 4.64946 11.4655 4.56061 11.2446 4.39512L10.7437 4.02113L10.7424 4.02013C9.85703 3.35548 8.79921 3 7.71506 3H7.10306C6.67332 3 6.12258 3.0248 5.57507 3.23021C4.04797 3.80423 2.86062 5.11789 2.08922 7.18587C1.32817 9.22612 0.94563 12.0559 1.0062 15.8326C1.01919 16.641 1.11425 17.5645 1.41677 18.4057C1.72423 19.2606 2.27022 20.0891 3.2018 20.561C3.76905 20.8495 4.39041 20.9995 5.01997 20.9996C5.7566 21.0105 6.47989 20.7907 7.09906 20.3679L7.10561 20.3634C7.5988 20.0208 8.02942 19.5786 8.38026 19.2184C8.4233 19.1742 8.46514 19.1312 8.50575 19.0898C8.91078 18.6769 9.22811 18.3799 9.57013 18.1915C10.0122 17.9496 10.5025 17.8232 11.0001 17.8232H12.9991C13.4965 17.8232 13.9869 17.9499 14.4288 18.1925C14.7702 18.3796 15.0876 18.6761 15.4931 19.0895C15.5336 19.1308 15.5752 19.1736 15.6181 19.2176C15.9692 19.578 16.4005 20.021 16.8953 20.364L16.901 20.3679C17.5202 20.7907 18.2435 21.0105 18.9802 20.9996C19.6093 20.9995 20.2304 20.8497 20.7973 20.5615C21.7294 20.0898 22.2757 19.2614 22.5833 18.4061C22.8859 17.565 22.9809 16.6415 22.9939 15.8327C23.054 12.056 22.6714 9.22611 21.9105 7.18593C21.1393 5.118 19.9528 3.80447 18.4256 3.23042C17.8782 3.02506 17.3291 3 16.8971 3H16.2851ZM13.9106 6.12384C13.352 6.54225 12.6844 6.76706 12.0001 6.76706C11.316 6.76706 10.6489 6.54256 10.0904 6.12451L10.0895 6.12384L9.58642 5.74821C9.23751 5.4861 8.84486 5.3016 8.4318 5.20247C8.19801 5.14636 7.95768 5.1176 7.71506 5.1176H7.10306C6.72694 5.1176 6.45774 5.14572 6.24329 5.22612C5.38759 5.54797 4.56336 6.31783 3.94939 7.96375C3.32495 9.63778 2.94748 12.1534 3.00591 15.7967C3.01693 16.4823 3.09886 17.1322 3.28585 17.6521C3.46777 18.158 3.72351 18.478 4.06534 18.651L4.06729 18.6519C4.3662 18.8041 4.69361 18.8827 5.02498 18.882L5.03423 18.882L5.04347 18.8821C5.38636 18.8881 5.72327 18.7866 6.01187 18.5905C6.33512 18.3653 6.6242 18.0697 6.99598 17.6896L7.11861 17.5643C7.51894 17.1562 8.02139 16.6572 8.64899 16.3119L8.65072 16.311C9.37643 15.9136 10.1819 15.7056 11.0001 15.7056H12.9991C13.817 15.7056 14.6229 15.9139 15.3488 16.3122C15.9773 16.6567 16.4801 17.1561 16.8803 17.564L17.002 17.6884C17.3744 18.0691 17.6638 18.365 17.9879 18.5902C18.2765 18.7865 18.6136 18.8881 18.9566 18.8821L18.9659 18.882L18.9751 18.882C19.3065 18.8827 19.6339 18.8041 19.9328 18.6519L19.9348 18.651C20.2768 18.4779 20.5324 18.158 20.7143 17.6524C20.9012 17.1328 20.9832 16.483 20.9942 15.7968C21.0521 12.1534 20.6747 9.63778 20.0503 7.96369C19.4364 6.31746 18.6123 5.54773 17.7565 5.226C17.542 5.14565 17.2747 5.1176 16.8971 5.1176L16.2177 5.11833C15.5707 5.13242 14.9419 5.35141 14.4127 5.74789L13.9106 6.12384Z"
    fill="black" />
  <path
    d="M14.9746 11.7353C15.5269 11.7353 15.9746 11.2613 15.9746 10.6765C15.9746 10.0918 15.5269 9.61771 14.9746 9.61771C14.4223 9.61771 13.9746 10.0918 13.9746 10.6765C13.9746 11.2613 14.4223 11.7353 14.9746 11.7353Z"
    fill="black" />
  <path
    d="M16.4998 10.1469C17.0521 10.1469 17.4998 9.67286 17.4998 9.0881C17.4998 8.50334 17.0521 8.0293 16.4998 8.0293C15.9475 8.0293 15.4998 8.50334 15.4998 9.0881C15.4998 9.67286 15.9475 10.1469 16.4998 10.1469Z"
    fill="black" />
  <path
    d="M18.0001 11.7353C18.5524 11.7353 19.0001 11.2613 19.0001 10.6765C19.0001 10.0918 18.5524 9.61771 18.0001 9.61771C17.4478 9.61771 17.0001 10.0918 17.0001 10.6765C17.0001 11.2613 17.4478 11.7353 18.0001 11.7353Z"
    fill="black" />
  <path
    d="M16.4998 13.3233C17.0521 13.3233 17.4998 12.8493 17.4998 12.2645C17.4998 11.6797 17.0521 11.2057 16.4998 11.2057C15.9475 11.2057 15.4998 11.6797 15.4998 12.2645C15.4998 12.8493 15.9475 13.3233 16.4998 13.3233Z"
    fill="black" />
</svg>