<svg width="24" height="24" viewBox="0 0 24 24" fill="none" xmlns="http://www.w3.org/2000/svg">
  <path fill-rule="evenodd" clip-rule="evenodd"
    d="M11.5679 7.00642C12.1166 7.06906 12.5107 7.56464 12.4481 8.11333L11.4545 7.99997L10.461 7.88655C10.5236 7.33783 11.0192 6.94378 11.5679 7.00642ZM11.4545 7.99997L10.461 7.88655L10.4601 7.89434L10.4579 7.91408L10.45 7.98646C10.4434 8.04831 10.4342 8.1363 10.4239 8.24239C10.4033 8.4537 10.3777 8.74073 10.3582 9.03784C10.3429 9.27176 10.3308 9.5211 10.3288 9.74898C10.327 9.95769 10.4102 10.7262 10.3937 11.0722M10.3937 11.0722C9.61489 11.716 8.80687 12.4066 8.05441 13.091C7.5569 13.5436 7.08014 13.9966 6.65033 14.434C5.22133 15.8885 3.72398 17.7718 2.59604 19.2714C2.02909 20.0252 1.54969 20.6898 1.21174 21.1664C1.04269 21.4048 0.908842 21.5964 0.816917 21.7289C0.770949 21.7952 0.735451 21.8467 0.711261 21.8819L0.683557 21.9223L0.673719 21.9367C0.673719 21.9367 0.673437 21.9371 1.5 22.5L0.673719 21.9367C0.362866 22.3932 0.480652 23.0157 0.937148 23.3265C1.39364 23.6374 2.0157 23.5193 2.32656 23.0628L2.33439 23.0514L2.3597 23.0144C2.38226 22.9816 2.41605 22.9326 2.46023 22.8689C2.5486 22.7415 2.67848 22.5555 2.84319 22.3233C3.17275 21.8585 3.64096 21.2094 4.19439 20.4736C5.30719 18.9941 6.74169 17.1948 8.07697 15.8357C8.37234 15.5351 8.69618 15.222 9.03954 14.9023C9.14931 14.936 9.28285 14.9853 9.4353 15.0576C9.85454 15.2562 10.2164 15.3614 10.4885 15.4167C10.6243 15.4443 10.7375 15.4594 10.824 15.4676C10.8672 15.4717 10.9038 15.474 10.9333 15.4754C10.9481 15.4761 10.961 15.4765 10.9722 15.4767L10.9875 15.477L10.9941 15.4771L10.9971 15.4771L10.9986 15.4771C10.9986 15.4771 11 15.4771 11 14.4771V15.4771C11.5523 15.4771 12 15.0294 12 14.4771C12 13.9323 11.5644 13.4893 11.0225 13.4773C11.0204 13.4772 11.0171 13.4769 11.0127 13.4765C10.9927 13.4746 10.9496 13.4695 10.8865 13.4567C10.8401 13.4473 10.7826 13.4336 10.7152 13.4138C11.1408 13.0503 11.5702 12.6925 11.9896 12.3491C12.9067 11.5982 13.9956 10.9738 14.875 10.5315C15.3108 10.3124 15.6865 10.1423 15.9517 10.0276C16.0841 9.97036 16.1885 9.92711 16.2586 9.89867C16.2936 9.88446 16.3199 9.87396 16.3368 9.86728L16.355 9.86014L16.3585 9.8588C16.8738 9.66065 17.1315 9.08221 16.9335 8.56678C16.7355 8.05121 16.1571 7.79375 15.6415 7.99173L16 8.92527C15.6415 7.99173 15.6415 7.99173 15.6415 7.99173L15.6375 7.99329L15.6296 7.99634L15.6027 8.00691C15.5798 8.01593 15.5473 8.02889 15.5059 8.04569C15.4232 8.07929 15.305 8.12829 15.1579 8.19193C14.8639 8.31907 14.4525 8.50539 13.9765 8.74473C13.4852 8.99179 12.9156 9.30003 12.3305 9.66313C12.3341 9.51172 12.3426 9.34222 12.354 9.16856C12.3716 8.89957 12.3951 8.63499 12.4145 8.43621C12.4241 8.33725 12.4326 8.25557 12.4387 8.19903L12.4457 8.13424L12.4475 8.11794L12.4481 8.11333M10.7226 10.8016C10.6137 10.8908 10.504 10.981 10.3937 11.0722C10.3884 11.1829 10.3806 11.2804 10.3742 11.3502C10.3709 11.3858 10.368 11.4135 10.366 11.4315L10.3639 11.4506L10.3636 11.4534C10.3636 11.4534 10.3636 11.4532 11.3561 11.5754C12.3486 11.6975 12.3486 11.6973 12.3486 11.6973L12.3489 11.6954L12.3493 11.692L12.3505 11.6819L12.3542 11.6485C12.3573 11.6207 12.3613 11.5819 12.3657 11.5343C12.3744 11.4395 12.3849 11.3075 12.3919 11.1562C12.405 10.8735 12.4103 10.4472 12.339 10.0663C12.3384 10.0618 12.335 10.0363 12.3323 9.9842C12.3293 9.92694 12.328 9.85412 12.3287 9.76654C12.329 9.73319 12.3296 9.69866 12.3305 9.66313C12.0476 9.83864 11.7612 10.027 11.4782 10.2274C11.2217 10.409 10.9681 10.6006 10.7226 10.8016ZM16 8.92527L16.3585 9.8588C16.3585 9.8588 16.3585 9.8588 16 8.92527ZM8.72727 13.8308C8.72727 14.8308 8.72658 14.8308 8.72658 14.8308L8.72457 14.8308L8.72202 14.8308L8.71739 14.8307L8.70997 14.8306L8.7023 14.8304C8.7023 14.8304 8.70456 14.8304 8.71456 14.8314C8.73458 14.8333 8.77767 14.8384 8.84068 14.8512C8.89336 14.8619 8.96025 14.878 9.03954 14.9023C9.15755 14.7924 9.27787 14.6818 9.40012 14.5705M10.292 13.2504C10.4574 13.3287 10.6006 13.3801 10.7152 13.4138C10.4281 13.6591 10.1427 13.907 9.86327 14.1547C9.70677 14.2935 9.55209 14.4323 9.40012 14.5705M11 14.4771C11 13.4771 11.0007 13.4771 11.0007 13.4771L11 14.4771ZM11.0007 13.4771C11.008 13.4771 11.0153 13.4772 11.0225 13.4773C11.0252 13.4775 11.025 13.4775 11.025 13.4775L11.0173 13.4772L11.0099 13.4771L11.0052 13.4771L11.0027 13.4771L11.0007 13.4771Z"
    fill="black" />
  <path
    d="M10.7226 10.8016C10.6137 10.8908 10.504 10.981 10.3937 11.0722C10.3884 11.1829 10.3806 11.2804 10.3742 11.3502C10.3709 11.3858 10.368 11.4135 10.366 11.4315L10.3639 11.4506L10.3636 11.4534C10.3636 11.4534 10.3636 11.4532 11.3561 11.5754C12.3486 11.6975 12.3486 11.6973 12.3486 11.6973L12.3489 11.6954L12.3493 11.692L12.3505 11.6819L12.3542 11.6485C12.3573 11.6207 12.3613 11.5819 12.3657 11.5343C12.3744 11.4395 12.3849 11.3075 12.3919 11.1562C12.405 10.8735 12.4103 10.4472 12.339 10.0663C12.3384 10.0618 12.335 10.0363 12.3323 9.9842C12.3293 9.92694 12.328 9.85412 12.3287 9.76654C12.329 9.73319 12.3296 9.69866 12.3305 9.66313C12.0476 9.83864 11.7612 10.027 11.4782 10.2274C11.2217 10.409 10.9681 10.6006 10.7226 10.8016Z"
    fill="black" />
  <path d="M12.4481 8.11333L11.4545 7.99997L10.3937 11.0722L12.4481 8.11333Z" fill="black" />
  <path
    d="M8.72727 13.8308C8.72727 14.8308 8.72658 14.8308 8.72658 14.8308L8.72457 14.8308L8.72202 14.8308L8.71739 14.8307L8.70997 14.8306L8.7023 14.8304C8.7023 14.8304 8.70456 14.8304 8.71456 14.8314C8.73458 14.8333 8.77767 14.8384 8.84068 14.8512C8.89336 14.8619 8.96025 14.878 9.03954 14.9023C9.15755 14.7924 9.27787 14.6818 9.40012 14.5705L8.72727 13.8308Z"
    fill="black" />
  <path
    d="M10.7152 13.4138C10.6006 13.3801 10.4574 13.3287 10.292 13.2504L9.40012 14.5705C9.55209 14.4323 9.70677 14.2935 9.86327 14.1547C10.1427 13.907 10.4281 13.6591 10.7152 13.4138Z"
    fill="black" />
  <path fill-rule="evenodd" clip-rule="evenodd"
    d="M20.9469 3.07567C19.1616 2.8855 14.3143 2.78233 9.46059 6.27291L9.46058 6.27291C6.50248 8.40022 5.44215 11.262 5.12015 13.6394C4.95867 14.8316 4.98546 15.8915 5.05291 16.652C5.08555 17.0201 5.12747 17.3153 5.16115 17.5181C5.26913 17.517 5.37911 17.5335 5.48728 17.5695C5.48751 17.5696 5.48775 17.5697 5.48798 17.5698C5.48822 17.5698 5.48845 17.5699 5.48869 17.57C5.48869 17.57 5.48869 17.57 5.48868 17.57L5.48802 17.5698L5.49492 17.572C5.50321 17.5746 5.51789 17.5792 5.53871 17.5855C5.58037 17.598 5.6465 17.6172 5.73511 17.6405C5.91246 17.6871 6.17897 17.7502 6.51869 17.8106C7.19958 17.9316 8.1656 18.0398 9.29203 17.9858C11.5354 17.8782 14.4035 17.1308 16.9675 14.5493L17.677 15.254L16.9675 14.5493C21.1256 10.3629 21.1176 5.0299 20.9469 3.07567ZM5.48869 17.57C5.48907 17.5702 5.48729 17.5769 5.17138 18.5182L5.4895 17.5703C5.48923 17.5702 5.48896 17.5701 5.48869 17.57ZM4.32371 19.0489C3.83882 19.0878 3.38528 18.7676 3.27122 18.2795L4.24498 18.0519C3.27122 18.2795 3.27111 18.279 3.271 18.2785L3.27073 18.2774L3.27008 18.2746L3.2683 18.2667L3.2629 18.2424C3.25854 18.2224 3.25268 18.1949 3.24565 18.1602C3.23159 18.0907 3.21282 17.9924 3.19189 17.868C3.15007 17.6194 3.09947 17.2655 3.06073 16.8287C2.98343 15.9571 2.95233 14.7436 3.13824 13.371C3.511 10.6188 4.76655 7.18514 8.29289 4.64919C13.8278 0.668739 19.3695 0.875467 21.306 1.10342L21.1891 2.09656L21.306 1.10342C22.1732 1.2055 22.8409 1.88642 22.9259 2.7556L22.9259 2.75564C23.125 4.79413 23.2741 11.0378 18.3865 15.9587C15.3925 18.9731 12.0077 19.8579 9.38781 19.9835C8.08258 20.0461 6.96431 19.9211 6.16883 19.7798C5.77036 19.709 5.45066 19.6337 5.22635 19.5747C5.11413 19.5452 5.02557 19.5197 4.96274 19.5008C4.93132 19.4913 4.90631 19.4835 4.88797 19.4777L4.86549 19.4704L4.85805 19.468L4.8553 19.4671L4.85416 19.4667C4.85366 19.4665 4.85319 19.4664 5.16724 18.5305L4.85319 19.4663C4.6247 19.3897 4.44222 19.2385 4.32371 19.0489Z"
    fill="black" />
</svg>