<svg width="24" height="24" viewBox="0 0 24 24" fill="none" xmlns="http://www.w3.org/2000/svg">
  <path fill-rule="evenodd" clip-rule="evenodd"
    d="M20 3.30482L9 6.26636L9 7.19514L20 4.23361L20 3.30482ZM20 6.30482V15H22V3.30482C22 1.98876 20.7508 1.03145 19.48 1.37359L8.48006 4.33513C8.48006 4.33513 8.48006 4.33513 8.48006 4.33513C7.60682 4.57023 7 5.36205 7 6.26636V19H9V9.26636L20 6.30482Z"
    fill="black" />
  <path fill-rule="evenodd" clip-rule="evenodd"
    d="M5.5 17C4.67157 17 4 17.6716 4 18.5C4 19.3284 4.67157 20 5.5 20C6.32843 20 7 19.3284 7 18.5C7 17.6716 6.32843 17 5.5 17ZM2 18.5C2 16.567 3.567 15 5.5 15C7.433 15 9 16.567 9 18.5C9 20.433 7.433 22 5.5 22C3.567 22 2 20.433 2 18.5Z"
    fill="black" />
  <path fill-rule="evenodd" clip-rule="evenodd"
    d="M18.5 13C17.6716 13 17 13.6716 17 14.5C17 15.3284 17.6716 16 18.5 16C19.3284 16 20 15.3284 20 14.5C20 13.6716 19.3284 13 18.5 13ZM15 14.5C15 12.567 16.567 11 18.5 11C20.433 11 22 12.567 22 14.5C22 16.433 20.433 18 18.5 18C16.567 18 15 16.433 15 14.5Z"
    fill="black" />
</svg>