<svg width="24" height="24" viewBox="0 0 24 24" fill="none" xmlns="http://www.w3.org/2000/svg">
  <g clip-path="url(#clip0_86_2109)">
    <path fill-rule="evenodd" clip-rule="evenodd"
      d="M3.14977 15.7324C3.38842 15.2343 3.98564 15.024 4.4837 15.2627L4.50141 15.2712L4.54903 15.2942C4.58995 15.314 4.64851 15.3424 4.71994 15.3775C4.86253 15.4473 5.05767 15.544 5.26677 15.6505C5.65312 15.8472 6.18598 16.1267 6.46665 16.3277C6.76303 16.5401 7.12532 16.909 7.36489 17.162C7.4962 17.3006 7.61318 17.4288 7.69721 17.5221C7.73935 17.5689 7.77353 17.6073 7.79746 17.6343L7.82545 17.6661L7.8332 17.6749L7.8361 17.6782C7.8361 17.6782 7.83649 17.6786 7.08326 18.3364L7.8361 17.6782C8.19936 18.0942 8.15701 18.7264 7.74101 19.0896C7.32503 19.4529 6.69336 19.4102 6.33008 18.9942L6.32879 18.9927L6.32322 18.9864L6.29994 18.96C6.2793 18.9367 6.24888 18.9025 6.21093 18.8604C6.13476 18.7758 6.02953 18.6605 5.91279 18.5373C5.65637 18.2665 5.41917 18.0376 5.30209 17.9537M3.61944 17.0663L3.63384 17.0732L3.67774 17.0944C3.71606 17.113 3.77161 17.14 3.83971 17.1733C3.97616 17.2402 4.1617 17.3321 4.35912 17.4327C4.78566 17.6499 5.16921 17.8586 5.30209 17.9537M3.14977 15.7324C2.91112 16.2304 3.1214 16.8276 3.61944 17.0663Z"
      fill="black" />
    <path
      d="M5.30209 17.9537L3.14977 15.7324L3.61944 17.0663L3.63384 17.0732L3.67774 17.0944C3.71606 17.113 3.77161 17.14 3.83971 17.1733C3.97616 17.2402 4.1617 17.3321 4.35912 17.4327C4.78566 17.6499 5.16921 17.8586 5.30209 17.9537Z"
      fill="black" />
    <path
      d="M2.456 15.9463L1.24773 17.3643L3.34616 15.3865C3.30972 15.4047 3.27109 15.4246 3.23057 15.4461C3.01715 15.5595 2.74258 15.7239 2.456 15.9463Z"
      fill="black" />
    <path
      d="M3.50353 15.1182C3.44301 15.2208 3.39036 15.3107 3.34616 15.3865L12.2077 4.5013L4.34179 13.733C3.99019 14.3006 3.70368 14.779 3.50353 15.1182Z"
      fill="black" />
    <path fill-rule="evenodd" clip-rule="evenodd"
      d="M14.5978 4.63838C13.8099 4.07398 12.9189 4.1934 12.2077 4.5013C11.5094 4.8036 10.8142 5.3486 10.1656 5.96803C9.42808 6.67229 8.67696 7.54506 7.96103 8.46135C7.52304 9.02192 7.09372 9.60459 6.6838 10.1837C6.33508 10.6763 5.99962 11.1674 5.68396 11.6416C5.18776 12.3869 4.73942 13.0918 4.36423 13.6968L4.34179 13.733L12.2077 4.5013L3.34616 15.3865L1.24773 17.3643L2.456 15.9463C2.39812 15.9912 2.33975 16.0384 2.2813 16.0881C1.9169 16.3979 1.53035 16.8177 1.24773 17.3643C1.01819 17.8083 0.87613 18.3063 0.787643 18.785C0.706954 19.2215 0.66581 19.6696 0.651436 20.0936C0.636357 20.5383 0.65034 20.9684 0.683066 21.3472C0.712296 21.6855 0.758094 22.0016 0.818408 22.2605C0.848 22.3874 0.88682 22.5258 0.939613 22.6553C0.966033 22.7201 1.00369 22.802 1.05668 22.8866C1.10363 22.9615 1.19876 23.0978 1.36063 23.2137C1.6102 23.3924 1.88004 23.4202 1.95925 23.4283C2.08635 23.4414 2.21428 23.4398 2.32669 23.4336C2.55564 23.421 2.82345 23.3829 3.10284 23.3277C3.34999 23.2789 3.61999 23.2141 3.89995 23.1339C4.48817 22.9655 5.15007 22.721 5.75023 22.3961C6.19436 22.1557 6.64277 21.8508 7.00045 21.4684C7.39385 21.0478 7.63965 20.5712 7.79454 20.1387C7.9669 19.6573 8.03707 19.2015 8.06579 18.8727C8.07052 18.8185 8.07418 18.7672 8.07698 18.7191C8.13207 18.6555 8.19563 18.5819 8.26682 18.4989C8.5389 18.1819 8.92301 17.7281 9.37336 17.1786C9.87427 16.5674 10.4582 15.8364 11.0618 15.0424C11.47 14.5054 11.8879 13.9385 12.2957 13.3594C12.7144 12.7649 13.1238 12.1555 13.5018 11.5506C14.0411 10.6878 14.5261 9.81886 14.8822 9.0057C15.2167 8.24198 15.4698 7.4559 15.5047 6.73541C15.5406 5.99386 15.342 5.17153 14.5978 4.63838ZM6.34153 17.6656L6.33566 17.6723L6.0615 17.981L6.08458 18.388L6.08484 18.3958C6.08506 18.404 6.08534 18.4178 6.08537 18.4364C6.08538 18.4417 6.08537 18.4473 6.08534 18.4533C6.08502 18.5085 6.08257 18.5934 6.07337 18.6987C6.0546 18.9137 6.00968 19.1905 5.9116 19.4645C5.82393 19.7093 5.70216 19.9286 5.53977 20.1022C5.37926 20.2738 5.12991 20.4576 4.79804 20.6373C4.358 20.8756 3.839 21.071 3.34942 21.2112C3.12086 21.2766 2.90529 21.3281 2.71544 21.3656L2.69519 21.3696C2.68815 21.3086 2.68157 21.2436 2.67564 21.175C2.64959 20.8735 2.63801 20.5236 2.65029 20.1614C2.66203 19.8149 2.69525 19.4681 2.75432 19.1485C2.82089 18.7884 2.91438 18.4955 3.02431 18.2829C3.15786 18.0246 3.35473 17.8006 3.57662 17.612C3.78744 17.4328 4.0039 17.3 4.16902 17.2123C4.25041 17.169 4.31619 17.1384 4.35827 17.1198C4.37922 17.1106 4.39403 17.1044 4.40164 17.1014L4.40627 17.0995L4.74169 16.9742L4.92118 16.6583L4.92538 16.6509L4.93987 16.6256L4.99837 16.524C5.05015 16.4345 5.12696 16.3025 5.226 16.1346C5.42414 15.7988 5.71094 15.3201 6.06391 14.7509C6.43002 14.1605 6.86664 13.4741 7.34876 12.7499C7.6554 12.2893 7.98002 11.8141 8.3162 11.3392C8.71165 10.7806 9.12204 10.2238 9.53701 9.69272C10.2211 8.81712 10.9058 8.02656 11.5468 7.41445C12.1323 6.85536 12.6252 6.49994 13.0023 6.33668C13.1844 6.25785 13.2983 6.24213 13.3561 6.24265C13.3992 6.24303 13.4145 6.25094 13.433 6.26423C13.4517 6.27764 13.4627 6.28917 13.4756 6.32278C13.4928 6.36793 13.5154 6.46479 13.507 6.63867C13.4895 7.0016 13.3468 7.52618 13.0502 8.20338C12.747 8.89564 12.316 9.67434 11.8058 10.4906C11.4511 11.0582 11.0627 11.6367 10.6605 12.2078C10.269 12.7639 9.86569 13.311 9.46957 13.8321C8.88374 14.6028 8.31538 15.3144 7.8265 15.9109C7.3872 16.4469 7.01298 16.8889 6.74913 17.1964C6.61724 17.35 6.51304 17.47 6.44219 17.551L6.36167 17.6428L6.34153 17.6656Z"
      fill="black" />
    <path fill-rule="evenodd" clip-rule="evenodd"
      d="M21.6529 10.5698C20.9714 5.32008 16.3414 1.70252 11.3739 2.39802C8.84138 2.75259 6.26373 4.17713 4.62962 6.14176C3.0148 8.08321 2.38437 10.4517 3.45058 12.8501C3.87344 13.8013 4.3105 14.447 4.72682 14.8866L3.27476 16.2619C2.6674 15.6206 2.11508 14.7694 1.62303 13.6626C0.174624 10.4044 1.1171 7.23717 3.09199 4.86282C5.0476 2.51164 8.07646 0.84018 11.0965 0.417341C17.2342 -0.441979 22.8206 4.02921 23.6363 10.3123C24.45 16.5802 20.3517 22.4025 14.0848 23.28C12.5594 23.4936 11.3535 23.3276 10.5195 22.6466C9.67419 21.9564 9.47771 20.9555 9.43931 20.1721C9.41951 19.7683 9.43919 19.3653 9.46261 19.0106C9.4702 18.8956 9.47792 18.7884 9.48522 18.6869C9.50188 18.4557 9.51638 18.2545 9.52223 18.0593C9.52631 17.9231 9.52472 17.8169 9.5198 17.7351C9.45362 17.7347 9.37941 17.7359 9.29826 17.7388C8.97342 17.7503 8.61929 17.7856 8.38665 17.8108L8.17095 15.8225C8.41212 15.7963 8.82617 15.7543 9.22729 15.74C9.42665 15.733 9.64366 15.7319 9.84527 15.747C10.0077 15.7592 10.3052 15.7894 10.5721 15.9246C11.0915 16.1878 11.3266 16.6513 11.4285 17.0366C11.525 17.4013 11.5311 17.7935 11.5213 18.1192C11.5141 18.3589 11.4949 18.6258 11.477 18.8751C11.4703 18.9673 11.4639 19.0571 11.4583 19.1423C11.436 19.48 11.4229 19.7894 11.4369 20.0742C11.466 20.668 11.6029 20.9492 11.7844 21.0974C11.9772 21.2548 12.4915 21.4835 13.8074 21.2993C18.9057 20.5855 22.3364 15.8346 21.6529 10.5698ZM9.77621 17.7506C9.78006 17.7514 9.77941 17.7515 9.77496 17.7504Z"
      fill="black" />
    <path fill-rule="evenodd" clip-rule="evenodd"
      d="M16.7611 13.9097C16.4683 13.9097 16.1146 14.1793 16.1146 14.658C16.1146 15.1368 16.4683 15.4064 16.7611 15.4064C17.0537 15.4064 17.4075 15.1369 17.4075 14.658C17.4075 14.1793 17.0538 13.9097 16.7611 13.9097ZM14.1146 14.658C14.1146 13.1337 15.3057 11.9097 16.7611 11.9097C18.2164 11.9097 19.4075 13.1337 19.4075 14.658C19.4075 16.1824 18.2165 17.4064 16.7611 17.4064C15.3057 17.4064 14.1146 16.1824 14.1146 14.658Z"
      fill="black" />
  </g>
  <defs>
    <clipPath id="clip0_86_2109">
      <rect width="24" height="24" fill="white" />
    </clipPath>
  </defs>
</svg>